<svg width="205" height="37" viewBox="0 0 205 37" fill="none" xmlns="http://www.w3.org/2000/svg">
<path d="M10.2653 13.4435C11.43 13.4435 12.4518 13.6712 13.3306 14.1265C14.22 14.5818 14.903 15.2329 15.3794 16.08C15.8665 16.9165 16.11 17.8906 16.11 19.0024C16.11 20.1141 15.8665 21.0882 15.3794 21.9247C14.903 22.7506 14.22 23.3912 13.3306 23.8465C12.4518 24.3018 11.43 24.5294 10.2653 24.5294H6.39001V13.4435H10.2653ZM10.1859 22.6394C11.3506 22.6394 12.2506 22.3218 12.8859 21.6865C13.5212 21.0512 13.8388 20.1565 13.8388 19.0024C13.8388 17.8482 13.5212 16.9482 12.8859 16.3024C12.2506 15.6459 11.3506 15.3177 10.1859 15.3177H8.61354V22.6394H10.1859ZM24.6197 13.4435V15.2382H19.998V18.0812H23.5397V19.8441H19.998V24.5294H17.7744V13.4435H24.6197Z" fill="url(#paint0_linear_1_184)"/>
<circle cx="15" cy="18" r="14.1176" stroke="url(#paint1_linear_1_184)" stroke-width="1.76471"/>
<path d="M44.8 9.58706C46.576 9.58706 48.128 9.93906 49.456 10.6431C50.784 11.3471 51.808 12.3391 52.528 13.6191C53.264 14.8831 53.632 16.3471 53.632 18.0111C53.632 19.6591 53.264 21.1231 52.528 22.4031C51.808 23.6831 50.776 24.6751 49.432 25.3791C48.104 26.0831 46.56 26.4351 44.8 26.4351H38.488V9.58706H44.8ZM44.536 22.8831C46.088 22.8831 47.296 22.4591 48.16 21.6111C49.024 20.7631 49.456 19.5631 49.456 18.0111C49.456 16.4591 49.024 15.2511 48.16 14.3871C47.296 13.5231 46.088 13.0911 44.536 13.0911H42.592V22.8831H44.536ZM68.5495 19.5231C68.5495 19.9071 68.5255 20.3071 68.4775 20.7231H59.1895C59.2535 21.5551 59.5175 22.1951 59.9815 22.6431C60.4615 23.0751 61.0455 23.2911 61.7335 23.2911C62.7575 23.2911 63.4695 22.8591 63.8695 21.9951H68.2375C68.0135 22.8751 67.6055 23.6671 67.0135 24.3711C66.4375 25.0751 65.7095 25.6271 64.8295 26.0271C63.9495 26.4271 62.9655 26.6271 61.8775 26.6271C60.5655 26.6271 59.3975 26.3471 58.3735 25.7871C57.3495 25.2271 56.5495 24.4271 55.9735 23.3871C55.3975 22.3471 55.1095 21.1311 55.1095 19.7391C55.1095 18.3471 55.3895 17.1311 55.9495 16.0911C56.5255 15.0511 57.3255 14.2511 58.3495 13.6911C59.3735 13.1311 60.5495 12.8511 61.8775 12.8511C63.1735 12.8511 64.3255 13.1231 65.3335 13.6671C66.3415 14.2111 67.1255 14.9871 67.6855 15.9951C68.2615 17.0031 68.5495 18.1791 68.5495 19.5231ZM64.3495 18.4431C64.3495 17.7391 64.1095 17.1791 63.6295 16.7631C63.1495 16.3471 62.5495 16.1391 61.8295 16.1391C61.1415 16.1391 60.5575 16.3391 60.0775 16.7391C59.6135 17.1391 59.3255 17.7071 59.2135 18.4431H64.3495ZM76.1626 26.6271C74.9946 26.6271 73.9546 26.4271 73.0426 26.0271C72.1306 25.6271 71.4106 25.0831 70.8826 24.3951C70.3546 23.6911 70.0586 22.9071 69.9946 22.0431H74.0506C74.0986 22.5071 74.3146 22.8831 74.6986 23.1711C75.0826 23.4591 75.5546 23.6031 76.1146 23.6031C76.6266 23.6031 77.0186 23.5071 77.2906 23.3151C77.5786 23.1071 77.7226 22.8431 77.7226 22.5231C77.7226 22.1391 77.5226 21.8591 77.1226 21.6831C76.7226 21.4911 76.0746 21.2831 75.1786 21.0591C74.2186 20.8351 73.4186 20.6031 72.7786 20.3631C72.1386 20.1071 71.5866 19.7151 71.1226 19.1871C70.6586 18.6431 70.4266 17.9151 70.4266 17.0031C70.4266 16.2351 70.6346 15.5391 71.0506 14.9151C71.4826 14.2751 72.1066 13.7711 72.9226 13.4031C73.7546 13.0351 74.7386 12.8511 75.8746 12.8511C77.5546 12.8511 78.8746 13.2671 79.8346 14.0991C80.8106 14.9311 81.3706 16.0351 81.5146 17.4111H77.7226C77.6586 16.9471 77.4506 16.5791 77.0986 16.3071C76.7626 16.0351 76.3146 15.8991 75.7546 15.8991C75.2746 15.8991 74.9066 15.9951 74.6506 16.1871C74.3946 16.3631 74.2666 16.6111 74.2666 16.9311C74.2666 17.3151 74.4666 17.6031 74.8666 17.7951C75.2826 17.9871 75.9226 18.1791 76.7866 18.3711C77.7786 18.6271 78.5866 18.8831 79.2106 19.1391C79.8346 19.3791 80.3786 19.7791 80.8426 20.3391C81.3226 20.8831 81.5706 21.6191 81.5866 22.5471C81.5866 23.3311 81.3626 24.0351 80.9146 24.6591C80.4826 25.2671 79.8506 25.7471 79.0186 26.0991C78.2026 26.4511 77.2506 26.6271 76.1626 26.6271ZM86.1614 11.6511C85.4414 11.6511 84.8494 11.4431 84.3854 11.0271C83.9374 10.5951 83.7134 10.0671 83.7134 9.44306C83.7134 8.80306 83.9374 8.27506 84.3854 7.85906C84.8494 7.42706 85.4414 7.21106 86.1614 7.21106C86.8654 7.21106 87.4414 7.42706 87.8894 7.85906C88.3534 8.27506 88.5854 8.80306 88.5854 9.44306C88.5854 10.0671 88.3534 10.5951 87.8894 11.0271C87.4414 11.4431 86.8654 11.6511 86.1614 11.6511ZM88.2014 13.0431V26.4351H84.0974V13.0431H88.2014ZM96.2635 12.8511C97.2075 12.8511 98.0315 13.0431 98.7355 13.4271C99.4555 13.8111 100.008 14.3151 100.392 14.9391V13.0431H104.496V26.4111C104.496 27.6431 104.248 28.7551 103.752 29.7471C103.272 30.7551 102.528 31.5551 101.52 32.1471C100.528 32.7391 99.2875 33.0351 97.7995 33.0351C95.8155 33.0351 94.2075 32.5631 92.9755 31.6191C91.7435 30.6911 91.0395 29.4271 90.8635 27.8271H94.9195C95.0475 28.3391 95.3515 28.7391 95.8315 29.0271C96.3115 29.3311 96.9035 29.4831 97.6075 29.4831C98.4555 29.4831 99.1275 29.2351 99.6235 28.7391C100.136 28.2591 100.392 27.4831 100.392 26.4111V24.5151C99.9915 25.1391 99.4395 25.6511 98.7355 26.0511C98.0315 26.4351 97.2075 26.6271 96.2635 26.6271C95.1595 26.6271 94.1595 26.3471 93.2635 25.7871C92.3675 25.2111 91.6555 24.4031 91.1275 23.3631C90.6155 22.3071 90.3595 21.0911 90.3595 19.7151C90.3595 18.3391 90.6155 17.1311 91.1275 16.0911C91.6555 15.0511 92.3675 14.2511 93.2635 13.6911C94.1595 13.1311 95.1595 12.8511 96.2635 12.8511ZM100.392 19.7391C100.392 18.7151 100.104 17.9071 99.5275 17.3151C98.9675 16.7231 98.2795 16.4271 97.4635 16.4271C96.6475 16.4271 95.9515 16.7231 95.3755 17.3151C94.8155 17.8911 94.5355 18.6911 94.5355 19.7151C94.5355 20.7391 94.8155 21.5551 95.3755 22.1631C95.9515 22.7551 96.6475 23.0511 97.4635 23.0511C98.2795 23.0511 98.9675 22.7551 99.5275 22.1631C100.104 21.5711 100.392 20.7631 100.392 19.7391ZM115.625 12.8991C117.193 12.8991 118.441 13.4111 119.369 14.4351C120.313 15.4431 120.785 16.8351 120.785 18.6111V26.4351H116.705V19.1631C116.705 18.2671 116.473 17.5711 116.009 17.0751C115.545 16.5791 114.921 16.3311 114.137 16.3311C113.353 16.3311 112.729 16.5791 112.265 17.0751C111.801 17.5711 111.569 18.2671 111.569 19.1631V26.4351H107.465V13.0431H111.569V14.8191C111.985 14.2271 112.545 13.7631 113.249 13.4271C113.953 13.0751 114.745 12.8991 115.625 12.8991ZM134.604 9.58706V12.8751H127.74V16.4271H132.876V19.6191H127.74V26.4351H123.636V9.58706H134.604ZM140.865 15.2751C141.345 14.5391 141.945 13.9631 142.665 13.5471C143.385 13.1151 144.185 12.8991 145.065 12.8991V17.2431H143.937C142.913 17.2431 142.145 17.4671 141.633 17.9151C141.121 18.3471 140.865 19.1151 140.865 20.2191V26.4351H136.761V13.0431H140.865V15.2751ZM159.651 19.5231C159.651 19.9071 159.627 20.3071 159.579 20.7231H150.291C150.355 21.5551 150.619 22.1951 151.083 22.6431C151.563 23.0751 152.147 23.2911 152.835 23.2911C153.859 23.2911 154.571 22.8591 154.971 21.9951H159.339C159.115 22.8751 158.707 23.6671 158.115 24.3711C157.539 25.0751 156.811 25.6271 155.931 26.0271C155.051 26.4271 154.067 26.6271 152.979 26.6271C151.667 26.6271 150.499 26.3471 149.475 25.7871C148.451 25.2271 147.651 24.4271 147.075 23.3871C146.499 22.3471 146.211 21.1311 146.211 19.7391C146.211 18.3471 146.491 17.1311 147.051 16.0911C147.627 15.0511 148.427 14.2511 149.451 13.6911C150.475 13.1311 151.651 12.8511 152.979 12.8511C154.275 12.8511 155.427 13.1231 156.435 13.6671C157.443 14.2111 158.227 14.9871 158.787 15.9951C159.363 17.0031 159.651 18.1791 159.651 19.5231ZM155.451 18.4431C155.451 17.7391 155.211 17.1791 154.731 16.7631C154.251 16.3471 153.651 16.1391 152.931 16.1391C152.243 16.1391 151.659 16.3391 151.179 16.7391C150.715 17.1391 150.427 17.7071 150.315 18.4431H155.451ZM161 19.7151C161 18.3391 161.256 17.1311 161.768 16.0911C162.296 15.0511 163.008 14.2511 163.904 13.6911C164.8 13.1311 165.8 12.8511 166.904 12.8511C167.848 12.8511 168.672 13.0431 169.376 13.4271C170.096 13.8111 170.648 14.3151 171.032 14.9391V13.0431H175.136V26.4351H171.032V24.5391C170.632 25.1631 170.072 25.6671 169.352 26.0511C168.648 26.4351 167.824 26.6271 166.88 26.6271C165.792 26.6271 164.8 26.3471 163.904 25.7871C163.008 25.2111 162.296 24.4031 161.768 23.3631C161.256 22.3071 161 21.0911 161 19.7151ZM171.032 19.7391C171.032 18.7151 170.744 17.9071 170.168 17.3151C169.608 16.7231 168.92 16.4271 168.104 16.4271C167.288 16.4271 166.592 16.7231 166.016 17.3151C165.456 17.8911 165.176 18.6911 165.176 19.7151C165.176 20.7391 165.456 21.5551 166.016 22.1631C166.592 22.7551 167.288 23.0511 168.104 23.0511C168.92 23.0511 169.608 22.7551 170.168 22.1631C170.744 21.5711 171.032 20.7631 171.032 19.7391ZM186.289 26.4351L182.209 20.8191V26.4351H178.105V8.67506H182.209V18.4911L186.265 13.0431H191.329L185.761 19.7631L191.377 26.4351H186.289ZM198.389 26.6271C197.221 26.6271 196.181 26.4271 195.269 26.0271C194.357 25.6271 193.637 25.0831 193.109 24.3951C192.581 23.6911 192.285 22.9071 192.221 22.0431H196.277C196.325 22.5071 196.541 22.8831 196.925 23.1711C197.309 23.4591 197.781 23.6031 198.341 23.6031C198.853 23.6031 199.245 23.5071 199.517 23.3151C199.805 23.1071 199.949 22.8431 199.949 22.5231C199.949 22.1391 199.749 21.8591 199.349 21.6831C198.949 21.4911 198.301 21.2831 197.405 21.0591C196.445 20.8351 195.645 20.6031 195.005 20.3631C194.365 20.1071 193.813 19.7151 193.349 19.1871C192.885 18.6431 192.653 17.9151 192.653 17.0031C192.653 16.2351 192.861 15.5391 193.277 14.9151C193.709 14.2751 194.333 13.7711 195.149 13.4031C195.981 13.0351 196.965 12.8511 198.101 12.8511C199.781 12.8511 201.101 13.2671 202.061 14.0991C203.037 14.9311 203.597 16.0351 203.741 17.4111H199.949C199.885 16.9471 199.677 16.5791 199.325 16.3071C198.989 16.0351 198.541 15.8991 197.981 15.8991C197.501 15.8991 197.133 15.9951 196.877 16.1871C196.621 16.3631 196.493 16.6111 196.493 16.9311C196.493 17.3151 196.693 17.6031 197.093 17.7951C197.509 17.9871 198.149 18.1791 199.013 18.3711C200.005 18.6271 200.813 18.8831 201.437 19.1391C202.061 19.3791 202.605 19.7791 203.069 20.3391C203.549 20.8831 203.797 21.6191 203.813 22.5471C203.813 23.3311 203.589 24.0351 203.141 24.6591C202.709 25.2671 202.077 25.7471 201.245 26.0991C200.429 26.4511 199.477 26.6271 198.389 26.6271Z" fill="url(#paint2_linear_1_184)"/>
<defs>
<linearGradient id="paint0_linear_1_184" x1="15.2941" y1="6.52942" x2="15.2941" y2="30.5294" gradientUnits="userSpaceOnUse">
<stop stop-color="#BFA9EF"/>
<stop offset="1" stop-color="#7A47EB"/>
</linearGradient>
<linearGradient id="paint1_linear_1_184" x1="15" y1="3" x2="15" y2="33" gradientUnits="userSpaceOnUse">
<stop stop-color="#BFA6F2"/>
<stop offset="0.486504" stop-color="#9866FF"/>
<stop offset="1" stop-color="#320297"/>
</linearGradient>
<linearGradient id="paint2_linear_1_184" x1="205" y1="0.435062" x2="37" y2="36.4351" gradientUnits="userSpaceOnUse">
<stop stop-color="#C9B6F1"/>
<stop offset="1" stop-color="#8960E2"/>
</linearGradient>
</defs>
</svg>
